<svg width="1440" height="1024" viewBox="0 0 1440 1024" fill="none" xmlns="http://www.w3.org/2000/svg">
<g clip-path="url(#clip0_0_3)">
<rect width="1440" height="1024" fill="white"/>
<path d="M46.8101 1464.3C98.1597 1421.5 210.844 1303.83 260.767 1250.34C260.767 1243.21 280.023 1231.08 357.047 1239.64C434.071 1248.2 460.46 1293.13 464.026 1314.53C439.064 1385.85 327.093 1541.32 78.9034 1592.67C-231.334 1656.86 -434.593 1453.6 -477.385 1410.81C-520.176 1368.02 -809.018 993.591 -584.363 865.217C-404.639 762.518 -224.202 729.711 -156.449 726.145L-252.73 886.613L-338.313 811.728L-359.708 843.821L-274.126 918.706C-277.691 925.838 -293.381 950.8 -327.614 993.591C-370.406 1047.08 -466.686 1196.85 -391.801 1261.04C-331.893 1312.39 -188.542 1282.43 -124.355 1261.04C-117.223 1278.87 -98.6805 1331.64 -81.564 1400.11C-60.1683 1485.69 -17.377 1517.79 46.8101 1464.3Z" fill="#EBF3F7"/>
<path d="M164.486 640.562L-38.7728 651.26C-38.7728 597.771 4.01854 533.584 46.8099 533.584C81.043 533.584 139.525 604.903 164.486 640.562Z" fill="#EBF3F7"/>
<path d="M399.839 779.634C374.164 728.285 310.69 715.447 282.162 715.447L389.141 897.311C403.405 879.481 425.513 830.984 399.839 779.634Z" fill="#EBF3F7"/>
<path d="M-284.823 683.354C-404.639 709.029 -570.099 772.503 -637.852 801.03C-498.78 373.117 -49.4707 319.627 132.393 373.117C314.256 426.606 506.817 587.073 560.306 779.634C603.098 933.683 563.872 1129.1 538.911 1207.55L324.954 1164.76L410.536 1025.68L453.328 1154.06L474.724 1111.27L431.932 1004.29L453.328 908.009C481.855 861.651 521.794 756.099 453.328 704.75C384.862 653.4 282.162 654.826 239.371 661.958C221.541 633.431 170.905 559.259 110.997 490.792C36.1121 405.21 -28.075 405.21 -81.5642 437.303C-124.356 462.978 -135.053 597.771 -135.053 661.958C-135.053 658.392 -165.007 657.679 -284.823 683.354Z" fill="#EBF3F7"/>
<path d="M-60.1685 704.749L-220.636 972.195C-213.504 982.893 -192.822 1012.85 -167.147 1047.08C-141.472 1081.31 -120.79 1154.06 -113.658 1186.15C-110.092 1182.59 -92.262 1171.18 -49.4707 1154.06C-6.67929 1136.94 160.92 1139.79 239.371 1143.36L367.745 940.102L217.975 704.749H-60.1685Z" fill="#EBF3F7"/>
<path d="M1532.55 519.446C1575.05 484.023 1668.33 386.611 1709.66 342.333C1709.66 336.429 1725.6 326.392 1789.36 333.477C1853.12 340.561 1874.96 377.755 1877.92 395.467C1857.25 454.504 1764.56 583.206 1559.11 625.714C1302.3 678.848 1134.04 510.59 1098.62 475.167C1063.2 439.745 824.094 129.797 1010.06 23.529C1158.84 -61.4853 1308.2 -88.6427 1364.29 -91.5945L1284.59 41.2403L1213.74 -20.7493L1196.03 5.81768L1266.88 67.8073C1263.92 73.711 1250.94 94.3743 1222.6 129.797C1187.18 174.075 1107.48 298.054 1169.46 351.188C1219.06 393.695 1337.72 368.9 1390.86 351.188C1396.76 365.948 1412.11 409.636 1426.28 466.312C1443.99 537.157 1479.41 563.724 1532.55 519.446Z" fill="#EBF3F7"/>
<path d="M1629.96 333.477L1426.28 351.188C1438.09 377.755 1470.56 432.66 1505.98 439.745C1541.4 446.829 1603.39 371.852 1629.96 333.477Z" fill="#EBF3F7"/>
<path d="M1258.02 -127.017C1158.84 -105.763 1021.87 -53.2198 965.784 -29.6047C1080.91 -383.831 1452.85 -428.109 1603.39 -383.831C1753.94 -339.553 1913.34 -206.718 1957.62 -47.316C1993.04 80.2054 1960.57 241.969 1939.91 306.91L1762.79 271.488L1833.64 156.364L1869.06 262.632L1886.77 227.209L1851.35 138.653L1869.06 58.9518C1892.68 20.5773 1925.74 -66.7985 1869.06 -109.306C1812.39 -151.813 1727.37 -150.632 1691.95 -144.728C1677.19 -168.343 1635.27 -229.743 1585.68 -286.419C1523.69 -357.264 1470.56 -357.264 1426.28 -330.697C1390.86 -309.444 1382 -197.862 1382 -144.728C1382 -147.68 1357.2 -148.27 1258.02 -127.017Z" fill="#EBF3F7"/>
<path d="M1443.99 -109.306L1311.15 112.086C1317.06 120.941 1334.18 145.737 1355.43 174.075C1376.69 202.413 1393.81 262.632 1399.71 289.199C1402.66 286.247 1417.42 276.801 1452.85 262.632C1488.27 248.463 1627.01 250.824 1691.95 253.776L1798.22 85.5186L1674.24 -109.306H1443.99Z" fill="#EBF3F7"/>
<path d="M1266.88 271.487C1245.62 236.065 1275.73 174.075 1293.44 147.508L1364.29 289.199C1340.67 298.054 1288.13 306.91 1266.88 271.487Z" fill="#EBF3F7"/>
</g>
<defs>
<clipPath id="clip0_0_3">
<rect width="1440" height="1024" fill="white"/>
</clipPath>
</defs>
</svg>
